<svg width="15" height="15" fill="none" xmlns="http://www.w3.org/2000/svg"><path d="M13.625 14.5c.62 0 1.125-.505 1.125-1.125V10.75c0-.62-.505-1.125-1.125-1.125-.877 0-1.74-.138-2.565-.41a1.142 1.142 0 00-1.142.272l-1.08 1.08a10.991 10.991 0 01-4.414-4.412l1.071-1.078a1.09 1.09 0 00.288-1.141 8.154 8.154 0 01-.408-2.561C5.375.755 4.87.25 4.25.25H1.625C1.005.25.5.755.5 1.375.5 8.613 6.388 14.5 13.625 14.5zM1.625 1H4.25a.375.375 0 01.375.375c0 .958.15 1.898.445 2.79a.355.355 0 01-.096.373L3.507 6.012c1.228 2.421 3.042 4.235 5.474 5.473l1.462-1.462a.387.387 0 01.387-.095 8.875 8.875 0 002.795.447c.206 0 .375.169.375.375v2.625a.376.376 0 01-.375.375C6.801 13.75 1.25 8.198 1.25 1.375A.375.375 0 011.625 1z" fill="#43FFD2"/></svg>